<svg width="287" height="490" viewBox="0 0 287 490" fill="none" xmlns="http://www.w3.org/2000/svg">
<path d="M116.475 79.6749C106.275 69.4749 89.675 69.4749 79.375 79.6749C69.175 89.8749 69.175 106.475 79.375 116.775C149.975 187.375 149.975 302.275 79.375 372.875C74.275 377.975 71.675 384.675 71.675 391.375C71.675 398.075 74.275 404.775 79.375 409.875C89.575 420.075 106.175 420.075 116.475 409.875C207.575 318.875 207.575 170.675 116.475 79.6749Z" fill="white"/>
<path d="M45.675 150.475C35.475 140.275 18.875 140.275 8.57497 150.475C-1.62503 160.675 -1.62503 177.275 8.57497 187.575C40.175 219.075 40.175 270.475 8.57497 301.975C3.47497 307.075 0.874985 313.775 0.874985 320.475C0.874985 327.175 3.47497 333.875 8.57497 338.975C18.775 349.175 35.375 349.175 45.575 338.975C97.675 287.075 97.675 202.475 45.675 150.475Z" fill="white"/>
<path d="M188.475 481.775C319.075 351.075 319.075 138.475 188.475 7.775C178.275 -2.425 161.675 -2.425 151.375 7.775C141.175 17.975 141.175 34.575 151.375 44.875C261.675 155.075 261.675 334.475 151.375 444.775C146.275 449.875 143.675 456.575 143.675 463.275C143.675 469.975 146.275 476.675 151.375 481.775C161.575 491.975 178.175 491.975 188.475 481.775Z" fill="white"/>
</svg>
