<svg width="42" height="30" viewBox="0 0 42 30" fill="none" xmlns="http://www.w3.org/2000/svg">
<path d="M42 26C42 28.209 40.209 30 38 30H4C1.791 30 0 28.209 0 26V4C0 1.791 1.791 0 4 0H38C40.209 0 42 1.791 42 4V26Z" fill="#0E4595"/>
<path d="M12.186 10L9.55998 17.832C9.55998 17.832 8.89298 14.519 8.82698 14.103C7.33198 10.692 5.12598 10.882 5.12598 10.882L7.72598 21V20.998H10.887L15.258 10H12.186ZM14.689 21H17.56L19.296 10H16.389L14.689 21ZM35.008 10H31.987L27.277 21H30.129L30.717 19.429H34.313L34.619 21H37.232L35.008 10ZM31.513 17.328L33.076 13.171L33.894 17.328H31.513ZM23.369 13.206C23.369 12.6 23.867 12.149 25.295 12.149C26.223 12.149 27.286 12.823 27.286 12.823L27.752 10.514C27.752 10.514 26.394 9.99902 25.061 9.99902C22.042 9.99902 20.485 11.443 20.485 13.271C20.485 16.577 24.464 16.124 24.464 17.822C24.464 18.113 24.233 18.786 22.576 18.786C20.914 18.786 19.817 18.177 19.817 18.177L19.322 20.393C19.322 20.393 20.385 20.999 22.439 20.999C24.498 20.999 27.354 19.459 27.354 17.247C27.354 14.586 23.369 14.394 23.369 13.206Z" fill="white"/>
<path d="M9.21203 15.945L8.24603 11.197C8.24603 11.197 7.80903 10.168 6.67303 10.168C5.53703 10.168 2.23303 10.168 2.23303 10.168C2.23303 10.168 7.89403 11.84 9.21203 15.945Z" fill="#FFC107"/>
</svg>
